/* XPM */
static char *e89106ed9aac4be18aaba33e8512218b[] = {
/* columns rows colors chars-per-pixel */
"32 32 70 1 ",
"  c None",
". c #6E2020",
"X c #772222",
"o c #802424",
"O c #822424",
"+ c #832424",
"@ c #852525",
"# c #872626",
"$ c #892626",
"% c #8A2626",
"& c #8B2626",
"* c #8B2727",
"= c #8C2727",
"- c #8F2727",
"; c #902828",
": c #922828",
"> c #932828",
", c #952929",
"< c #962929",
"1 c #972929",
"2 c #9A2A2A",
"3 c #9D2B2B",
"4 c #9E2B2B",
"5 c #A02B2B",
"6 c #A12C2C",
"7 c #A32C2C",
"8 c #A52C2C",
"9 c #A52D2D",
"0 c #A82D2D",
"q c #A92E2E",
"w c #AB2E2E",
"e c #AC2E2E",
"r c #AD2E2E",
"t c #AD2F2F",
"y c #B02F2F",
"u c #B13030",
"i c #B23030",
"p c #B43030",
"a c #B53030",
"s c #B73131",
"d c #B83131",
"f c #BB3232",
"g c #BD3232",
"h c #BE3333",
"j c #BF3333",
"k c #C03333",
"l c #C13333",
"z c #C33434",
"x c #C63434",
"c c #CA3535",
"v c #CA3636",
"b c #CB3636",
"n c #CC3636",
"m c #CD3636",
"M c #CE3636",
"N c #D13737",
"B c #D23737",
"V c #D33838",
"C c #D53838",
"Z c #D73939",
"A c #D93939",
"S c #DC3A3A",
"D c #DD3A3A",
"F c #E03B3B",
"G c #E23B3B",
"H c #E33B3B",
"J c #E43C3C",
"K c #E53C3C",
"L c #E63C3C",
"P c #E83C3C",
/* pixels */
"                         Mq=    ",
"            ffu          Mt&    ",
"           jfat  Bu;     vt=    ",
"         xkjfat  Cu;     Mt@    ",
"       Mvxljfat  Vu;            ",
"      BMvxxjffq  Bu;         F4&",
"    ACBMvxkjfau              S6&",
"  FSACBMvvkjffa        FuO      ",
"LJSSACBMvxljfa         Fa.      ",
"LLJSACBMvxlj               Lu&  ",
"LJSSACBMMx                 Aa<  ",
"LJJSACBM      aq           Cf<  ",
"LJSSACBM    Mjaq4     <    La<  ",
"LJJSACBv  LAMkaq4;@   2:=       ",
"LJSSACVv  LCvjaq4:@   2;;*X     ",
"LJJAACBv  LCMjaq4<@   <<=*@O    ",
"LJJSACBv  LCMjaq2;@   <:==@O    ",
"LLSSACBv  LAvlaq4;@   2::=&O    ",
"LJSSACBv  LCMjaq4<@   2>=%@O    ",
"LJJAACBM    vjaq4     <>:%&O    ",
"LJDSACBM     laq     2<>=&@@    ",
"LJJSACBMvx         642<:=&&O    ",
"LJDSACBMvxxj      8642<<;=@O    ",
"LJJSACBMvxkjf   tq8642<;==&O    ",
"  JAACVMvxljfaaytq8642<::&&     ",
"   SACBMvxxjffaytq8642<<=&      ",
"     CBMvxkjffyyt88642<;        ",
"       Mvxxjfaaytq8642          ",
"         xkjfaayt0864           ",
"          xjffayt08             ",
"            ffatt               ",
"              a                 "
};
