/* XPM */
static char *_f86f6ba017747efab1d4b41ad2abe26[] = {
/* columns rows colors chars-per-pixel */
"64 64 80 1 ",
"  c None",
". c #812424",
"X c #822424",
"o c #832525",
"O c #852525",
"+ c #862525",
"@ c #872525",
"# c #882626",
"$ c #8A2626",
"% c #8B2626",
"& c #8A2727",
"* c #8C2727",
"= c #8E2727",
"- c #902727",
"; c #902828",
": c #922828",
"> c #932828",
", c #952929",
"< c #962929",
"1 c #972929",
"2 c #992A2A",
"3 c #9B2A2A",
"4 c #9D2B2B",
"5 c #9F2B2B",
"6 c #A02B2B",
"7 c #A02C2C",
"8 c #A12C2C",
"9 c #A22C2C",
"0 c #A42C2C",
"q c #A52D2D",
"w c #A62D2D",
"e c #A82D2D",
"r c #AA2E2E",
"t c #AC2E2E",
"y c #AD2E2E",
"u c #AE2F2F",
"i c #AF2F2F",
"p c #B02F2F",
"a c #B12F2F",
"s c #B23030",
"d c #B33030",
"f c #B43030",
"g c #B53030",
"h c #B73131",
"j c #B83131",
"k c #B93131",
"l c #BA3232",
"z c #BC3232",
"x c #BD3333",
"c c #BE3232",
"v c #BE3333",
"b c #C03333",
"n c #C23333",
"m c #C33434",
"M c #C43434",
"N c #C53434",
"B c #C73535",
"V c #C83535",
"C c #C93535",
"Z c #CB3636",
"A c #CC3636",
"S c #CD3636",
"D c #CF3636",
"F c #CE3737",
"G c #D13737",
"H c #D23737",
"J c #D43838",
"K c #D63838",
"L c #D73939",
"P c #D83939",
"I c #DA3939",
"U c #DC3A3A",
"Y c #DD3A3A",
"T c #DE3A3A",
"R c #DF3A3A",
"E c #E13B3B",
"W c #E23B3B",
"Q c #E33B3B",
"! c #E53C3C",
"~ c #E63C3C",
/* pixels */
"                                                 !Fmdw,O        ",
"                            g                    !Fmdw,O        ",
"                          zgg                    WJmgw,O        ",
"                        zzzgg                    !Smdw,O        ",
"                      nnzzzgg                    WGmgw,O        ",
"                     nxxzzlgg    ~KNzr3&         WGmdw,O        ",
"                   NNnxxzzggg    ~KZzr3&         WGmdw,O        ",
"                 ZNNNnnxzgzgg    ~KZgr3&                        ",
"               SZNNNmnnxvllhg    ~LBzr3&                        ",
"              SSZZZNNnnxllggg    ~LBgr3&                        ",
"            GGGSZZNNmnxxvlzgg    ~LVzr3&                   Fd2  ",
"          KKHGSSZZNNNnnxllgzg     LVlr3&                  ~Sd,O ",
"         IKKHGGSZNNNmmvvvzggg                             ~Fd,O ",
"       YIIKHHGGSZZZNNmvvzzlgg                             ~Fd,O ",
"     YYYIIKHGGSSZZNNmnmvllzgg                  Ivw*        Sd,  ",
"   QWYYYIKKHGGGSZZNNNnvvvllgg                  Ivw*             ",
"  ~WWYYYIIKJJSGSZZNNNnnxzzgg                   Ivw*             ",
" ~~QWYYYIKKJGJSSZZZNnnnxzz                     Ivw*             ",
" ~~WWYYYIIKJGGSSZZNNNnxxv                                       ",
" ~~WWWYIIKKJGGGSZNNNNnn                               YSvd8;X   ",
" ~~WWYYYIKKJGGSSZNNNm                                 YSxp8;X   ",
" ~~WYWYIIIKKGGGSZZZN                                  YSxp8;X   ",
" ~!WWWYYIIIHGGGSZZ          gd                        YSxp8;X   ",
" ~~~YYYYIIKHGGSS           vgdyw                      YSxp8;X   ",
" ~~WWYYIIKKKHGG          Znxgdyw8          2          YSxp8;X   ",
" ~~WWYYYIIKJHGG        KSZNxgdyw82,        2,,        YSxp8;    ",
" ~~WYWYYIIKJGGG       IJDCNxgdyw84,-#      22,>,                ",
" ~~W!YYYIKKJGGS     !!IJDCNxzdyw82,=#O     2,,>-;=              ",
" ~~WWYYIIKKJJFS     ~WIJDCNxaayw64,-=X     22,,-;==#            ",
" ~~WWWYYIIKJJJG     ~WIJDCnczayw64,-#O     22,-,;==###          ",
" ~~WYWYYIPKJFJS     ~YIJDCNczgyw82,-#O     2,,>-;==##OOX        ",
" ~~WWYYIIKKKJFS     ~WIKDCNcaayw82,;#X     22,,;;==###OXX       ",
" ~!!TTTPIIKKGGS     ~WIJSNNxgdyw82,-#O     2,,>-;==##OOXX       ",
" !!T!!TTIKKKGGG     ~WIJGZNxgdyw64,-=X     22,>,;-=###OOX       ",
" ~!!TTTPIKHKGGG     ~YIJSZmvzdrw82,-#O     2,,--;==###OXX       ",
" ~!!!TTTIIIHHGS     ~!IJSZmvgdiw82,-#X     22,>>;==##OOOX       ",
" ~~!TTTTIIKJHGG     ~WIJSCNxgdiw64,-=X     22,,-;==###OXX       ",
" ~!!!TTPIKKJGGG      WIKGCNcgdrw82,-#O     2,,>>;==##OOXX       ",
" ~!!TTTTIIKJGGS       IHSCNczdyw52,;       22>>>;==###OOX       ",
" ~~Y!TTPIKKJGGG         GCncgdyw84         22,>-;=#=##OXX       ",
" ~!WWYYYIIKJJFG           Nxgdyw           2>,>>;==###OOX       ",
" ~~WYWYIIKKJGJSSZ           gdi          4422,>>;==##OOXX       ",
" ~~WWWYYIIKJGGSSZZN                     4422,,>>;=*=#OOXX       ",
" ~~!YYYYIKKJGGGSZZNN                  8664422,>>;=*###OOX       ",
" ~~W!YYYIIKJGGSSZZNNNn              www644221>>-;==##OOXX       ",
" ~~WYWYIIKKJGGGSZZNNmnnx           wr66664422>>>;==###OOX       ",
" ~!WWWYYIIIHGGGSZZZNNnxxzg       yrrww66644212>>;==###OXX       ",
" ~~~YYYYIIKHHGSSZNNNNnxnzzz    iyyrww6w444221>>-;==##OOXX       ",
"   WWYYYIIKJJJSZZNNNmnnxxzgggddiyrrrw06644222,,-;==##OOO        ",
"    WYYYIKKJJSSSZZZNNnnxzzzggdyiyyr0ww8664422,-,;==###          ",
"      YYIKKJGGGSZZNNmnxxvlgggddiyyrrw0w64442,,,-*==#            ",
"        IIKKGGSSZZNNNnnxzlgzgdiiyyrrw06664222,-,;==             ",
"         IKJHGGSZNNNmnnxzzglgdiiyyrr006664312,-;;               ",
"           KHGGSZZZNNnnxzzlhgddidrrwr0064442,,,                 ",
"             GSSZZNNmnnxzlzhgddiyrrr006664312                   ",
"               SZZNNNnxxzggggdiiyyrwe0666442                    ",
"                VVVNNmmxzzgggddyyyrww68644                      ",
"                  VNmmvvzzzzgdpdiyrrww86                        ",
"                    Nmvvzggggdpyiyrwwww                         ",
"                      mvllzggdpdirrrw                           ",
"                       vvlzggdpyyyr                             ",
"                         lzggdppi                               ",
"                           ggddi                                ",
"                            gd                                  "
};
