/* XPM */
static char *_27984578e01490ae17f4b22910ea1bd[] = {
/* columns rows colors chars-per-pixel */
"16 16 49 1 ",
"  c None",
". c #7C2323",
"X c #7D2323",
"o c #812424",
"O c #832424",
"+ c #852525",
"@ c #8D2727",
"# c #8E2727",
"$ c #8F2727",
"% c #912828",
"& c #942929",
"* c #962929",
"= c #982A2A",
"- c #992A2A",
"; c #9A2A2A",
": c #9B2A2A",
"> c #9C2A2A",
", c #9D2B2B",
"< c #9E2B2B",
"1 c #9F2B2B",
"2 c #A32C2C",
"3 c #A72D2D",
"4 c #AA2E2E",
"5 c #AB2E2E",
"6 c #AE2F2F",
"7 c #AF2F2F",
"8 c #B23030",
"9 c #B33030",
"0 c #B53131",
"q c #B73131",
"w c #B93131",
"e c #BC3232",
"r c #C13333",
"t c #C53434",
"y c #C63434",
"u c #C73535",
"i c #C83535",
"p c #C93535",
"a c #CA3535",
"s c #CB3535",
"d c #CB3636",
"f c #D03737",
"g c #D73939",
"h c #DF3A3A",
"j c #E53C3C",
"k c #E63C3C",
"l c #E83C3C",
"z c #F74040",
"x c #FF4343",
/* pixels */
"      e     h-  ",
"     r9  1  z$  ",
"   ftr9 l1      ",
" hgfar0     X  -",
"jhgfae      1   ",
"jhgft        x1 ",
"jhga  a7&  O    ",
"jhga jt7&  -OX  ",
"jhga jt7&  -$O  ",
"jjgd  a7&  &#+  ",
"jhgf      1&#+  ",
"jhgfte  73-&#+  ",
" hgftre9521&#   ",
"   fare752-&    ",
"     re952      ",
"      09        "
};
